<svg width="199" height="72" viewBox="0 0 199 72" fill="none" xmlns="http://www.w3.org/2000/svg">
<path fill-rule="evenodd" clip-rule="evenodd" d="M78.56 33.49C78.56 34.29 78.28 34.98 77.71 35.55C77.14 36.12 76.46 36.4 75.65 36.4C74.84 36.4 74.16 36.12 73.58 35.55C73 34.98 72.71 34.3 72.71 33.49V22.85C72.71 22.49 72.52 22.3 72.13 22.3H68.56C67.75 22.3 67.06 22.01 66.49 21.43C65.92 20.84 65.63 20.15 65.63 19.36C65.63 18.57 65.92 17.9 66.49 17.32C67.06 16.74 67.75 16.46 68.55 16.46H72.12C73.88 16.46 75.39 17.07 76.65 18.3C77.91 19.53 78.54 21.02 78.54 22.79V33.49H78.56ZM58.6 19.38C58.6 18.6 58.88 17.92 59.44 17.34C60 16.76 60.69 16.46 61.52 16.46C62.35 16.46 62.99 16.74 63.57 17.31C64.15 17.88 64.44 18.57 64.44 19.38V33.49C64.44 34.29 64.16 34.98 63.59 35.55C63.02 36.12 62.33 36.4 61.52 36.4C60.71 36.4 60.04 36.12 59.46 35.55C58.88 34.98 58.6 34.3 58.6 33.49V19.38ZM97.47 26.43V33.49C97.47 34.29 97.19 34.98 96.62 35.55C96.05 36.12 95.36 36.4 94.55 36.4C93.74 36.4 93.05 36.12 92.48 35.55C91.9 34.98 91.62 34.3 91.62 33.49V26.43C91.62 25.62 91.9 24.94 92.47 24.37C93.04 23.8 93.74 23.51 94.55 23.51C95.36 23.51 96.02 23.79 96.6 24.36C97.18 24.93 97.47 25.62 97.47 26.43ZM87.48 22.3C86.68 22.3 86 22.02 85.42 21.45C84.84 20.88 84.56 20.19 84.56 19.38C84.56 18.57 84.84 17.92 85.4 17.34C85.96 16.76 86.65 16.46 87.48 16.46H101.6C102.39 16.46 103.07 16.75 103.65 17.32C104.23 17.89 104.52 18.58 104.52 19.38C104.52 20.18 104.23 20.89 103.66 21.45C103.09 22.02 102.4 22.3 101.6 22.3H87.48ZM116.37 19.38V33.49C116.37 34.29 116.08 34.98 115.51 35.55C114.94 36.12 114.25 36.4 113.44 36.4C112.63 36.4 111.95 36.12 111.38 35.56C110.8 35 110.52 34.31 110.52 33.5V19.39C110.52 18.6 110.8 17.92 111.37 17.34C111.94 16.76 112.63 16.47 113.44 16.47C114.25 16.47 114.94 16.76 115.51 17.34C115.78 17.61 115.99 17.92 116.14 18.27C116.29 18.62 116.37 18.99 116.37 19.39V19.38ZM134.56 26.43V33.49C134.56 34.29 134.28 34.98 133.71 35.55C133.14 36.12 132.45 36.4 131.64 36.4C130.83 36.4 130.14 36.12 129.57 35.55C128.99 34.98 128.71 34.3 128.71 33.49V26.43C128.71 25.62 128.99 24.94 129.56 24.37C130.13 23.8 130.83 23.51 131.64 23.51C132.45 23.51 133.11 23.79 133.69 24.36C134.27 24.93 134.56 25.62 134.56 26.43ZM124.57 22.3C123.77 22.3 123.09 22.02 122.51 21.45C121.93 20.88 121.65 20.19 121.65 19.38C121.65 18.57 121.93 17.92 122.49 17.34C123.05 16.76 123.74 16.46 124.57 16.46H138.69C139.48 16.46 140.16 16.75 140.74 17.32C141.32 17.89 141.61 18.58 141.61 19.38C141.61 20.18 141.32 20.89 140.75 21.45C140.18 22.02 139.49 22.3 138.69 22.3H124.57ZM157.6 30.56C158.39 30.56 159.07 30.85 159.65 31.42C160.23 31.99 160.52 32.68 160.52 33.5C160.52 34.32 160.24 34.99 159.67 35.56C159.09 36.13 158.41 36.41 157.6 36.41C156.79 36.41 156.1 36.13 155.53 35.56C154.95 34.99 154.67 34.31 154.67 33.5C154.67 32.69 154.95 32 155.52 31.43C156.09 30.85 156.78 30.57 157.61 30.57L157.6 30.56ZM147.61 19.36C147.61 18.59 147.89 17.91 148.46 17.33C149.03 16.75 149.71 16.46 150.52 16.46C151.33 16.46 152.01 16.74 152.59 17.31C153.17 17.88 153.46 18.56 153.46 19.37V22.96C153.46 23.33 153.65 23.52 154.03 23.52H161.17C161.54 23.52 161.73 23.33 161.73 22.96V19.37C161.73 18.58 162.02 17.9 162.6 17.33C163.18 16.75 163.87 16.47 164.68 16.47C165.49 16.47 166.15 16.75 166.73 17.32C167.31 17.89 167.59 18.57 167.59 19.37V23.05C167.59 24.81 166.96 26.3 165.69 27.52C164.43 28.74 162.92 29.36 161.17 29.36H154.03C152.26 29.36 150.75 28.75 149.49 27.53C148.24 26.31 147.61 24.82 147.61 23.05V19.37V19.36ZM39.09 30.56H49.7C50.49 30.56 51.17 30.85 51.73 31.42C52.3 31.99 52.58 32.68 52.58 33.5C52.58 34.32 52.3 34.98 51.74 35.55C51.18 36.12 50.5 36.41 49.7 36.41H39.08C37.33 36.41 35.83 35.78 34.55 34.51C33.28 33.24 32.64 31.73 32.64 29.97C32.64 28.21 33.28 26.71 34.55 25.43C35.83 24.16 37.33 23.52 39.08 23.52H49.7C50.49 23.52 51.17 23.8 51.73 24.37C52.3 24.94 52.58 25.62 52.58 26.43C52.58 27.24 52.3 27.93 51.73 28.5C51.16 29.08 50.48 29.36 49.7 29.36H39.09C38.69 29.36 38.49 29.56 38.49 29.96C38.49 30.36 38.69 30.56 39.09 30.56ZM198.41 13.01V39.87C198.41 40.88 198.03 41.75 197.27 42.47C196.51 43.18 195.6 43.54 194.53 43.54C193.46 43.54 192.55 43.18 191.8 42.48C191.04 41.77 190.66 40.91 190.66 39.88V13.02C190.66 12.03 191.03 11.16 191.78 10.43C192.53 9.7 193.45 9.33 194.53 9.33C195.61 9.33 196.51 9.69 197.27 10.43C197.63 10.78 197.91 11.16 198.11 11.6C198.3 12.04 198.41 12.51 198.41 13.02V13.01ZM184.18 5.7V47.19C184.18 48.76 183.59 50.1 182.42 51.2C181.25 52.3 179.84 52.85 178.19 52.85C176.54 52.85 175.14 52.3 173.97 51.21C172.8 50.11 172.21 48.78 172.21 47.19V5.7C172.21 4.17 172.79 2.83 173.95 1.7C175.11 0.570001 176.52 0.00999832 178.19 0.00999832C179.86 0.00999832 181.25 0.570001 182.42 1.7C182.98 2.24 183.41 2.83 183.72 3.51C184.02 4.18 184.18 4.91 184.18 5.7ZM0 13V39.86C0 40.87 0.38 41.74 1.14 42.46C1.9 43.17 2.81 43.53 3.88 43.53C4.95 43.53 5.86 43.17 6.61 42.47C7.37 41.76 7.75 40.9 7.75 39.87V13.01C7.75 12.02 7.38 11.15 6.63 10.42C5.88 9.69 4.96 9.32 3.88 9.32C2.8 9.32 1.9 9.69 1.14 10.42C0.78 10.77 0.5 11.15 0.3 11.59C0.1 12.03 0 12.5 0 13.01L0 13ZM14.23 5.69V47.18C14.23 48.75 14.82 50.09 15.99 51.19C17.16 52.29 18.57 52.84 20.22 52.84C21.87 52.84 23.27 52.29 24.44 51.2C25.61 50.1 26.2 48.77 26.2 47.18V5.69C26.2 4.16 25.62 2.82 24.46 1.69C23.3 0.559999 21.89 0 20.22 0C18.55 0 17.16 0.559999 15.99 1.69C15.43 2.23 15 2.82 14.69 3.5C14.39 4.17 14.23 4.9 14.23 5.69ZM35.55 16.45H49.67C50.46 16.45 51.14 16.74 51.72 17.31C52.3 17.88 52.59 18.57 52.59 19.37C52.59 20.17 52.3 20.88 51.73 21.44C51.16 22.01 50.47 22.29 49.67 22.29H35.55C34.74 22.29 34.06 22.01 33.49 21.45C32.91 20.89 32.63 20.2 32.63 19.37C32.63 18.54 32.91 17.9 33.48 17.32C34.05 16.74 34.74 16.45 35.55 16.45Z" fill="#231815"/>
<path fill-rule="evenodd" clip-rule="evenodd" d="M142.17 55.0203C143.29 56.6803 143.95 58.6703 143.95 60.8103C143.95 66.5303 139.27 71.2104 133.55 71.2104H68.02C65.59 71.2104 63.34 70.3603 61.57 68.9503H64.11C65.04 69.2203 66.02 69.3704 67.04 69.3704H132.57C138.29 69.3704 142.97 64.6904 142.97 58.9704C142.97 57.5704 142.69 56.2304 142.18 55.0104L142.17 55.0203ZM126.08 53.1303H126.51L127.54 59.3604H126.08V53.1303ZM122.79 53.1303H123.24V59.3604H121.77L122.8 53.1303H122.79ZM117.65 63.1504V54.6404H117.27L119.34 50.3803H116.62L114.8 53.9604H114.08L114.51 55.8803H115.23V63.1604H117.65V63.1504ZM118.93 53.1303H120.27L118.95 60.6804H118.18L118.68 62.0804H121.32L121.49 60.9804H123.24V63.1404H126.08V60.9804H127.81L128 62.0804H130.64L131.14 60.6804H130.37L129.05 53.1303H130.37V51.5004H126.09V50.3904H123.25V51.5004H118.95V53.1303H118.93ZM100.4 61.6804L100.71 60.8204H100.26L99.56 59.2604H96.96L97.97 61.6703H100.4V61.6804ZM105.06 63.1504V58.6104H106.09V57.0504H105.06V56.0404H102.13V57.0504H96.39V58.6104H102.13V61.9304H100.76L101.41 63.1504H105.06ZM96.38 54.4004V55.8204H106.11V54.4004H102.75V52.9104H105.61V51.4903H102.75V50.4804H99.74V51.4903H96.88V52.9104H99.74V54.4004H96.38ZM91.7 52.9404L91.89 51.3103H89.49L89.16 54.5004H92.23V58.1003L89.16 58.9903V60.7703L92.23 59.8803V63.1703H94.92V59.1104L96 58.7803V57.0004L94.92 57.3304V54.5004H95.83V52.9404H94.92V50.4704H92.23V52.9404H91.7ZM72.64 59.5504C70.79 58.8504 69.49 57.8904 69.09 56.7204H76.16C75.77 57.8804 74.48 58.8404 72.63 59.5504H72.64ZM70.96 50.3503V51.1604H64.14V53.9203H67.45V52.6404H77.79V53.9203H81.2V51.1604H74.38V50.3503H70.95H70.96ZM81.13 60.9903C79.4 60.9403 77.72 60.7804 76.2 60.5104C78 59.4704 79.09 58.1804 79.35 56.7304H81.13V55.0903H79.4V54.1604H76.3V55.0903H68.97V54.1604H65.87V55.0903H64.21V56.7304H65.92C66.16 58.1904 67.27 59.4704 69.09 60.5104C67.58 60.7804 65.92 60.9403 64.23 60.9903V63.0804C67.47 63.0304 70.33 62.6304 72.66 61.9704C75.01 62.6404 77.88 63.0304 81.14 63.0804V60.9903H81.13ZM64.86 46.3604H130.39C136.11 46.3604 140.79 51.0404 140.79 56.7604C140.79 62.4804 136.11 67.1604 130.39 67.1604H64.86C59.14 67.1604 54.47 62.4803 54.47 56.7703C54.47 51.0503 59.15 46.3704 64.86 46.3704V46.3604Z" fill="#231815"/>
<path d="M142.17 55.0203C143.29 56.6803 143.95 58.6703 143.95 60.8103C143.95 66.5303 139.27 71.2104 133.55 71.2104H68.02C65.59 71.2104 63.34 70.3603 61.57 68.9503H64.11C65.04 69.2203 66.02 69.3704 67.04 69.3704H132.57C138.29 69.3704 142.97 64.6904 142.97 58.9704C142.97 57.5704 142.69 56.2304 142.18 55.0104L142.17 55.0203ZM126.08 53.1303H126.51L127.54 59.3604H126.08V53.1303ZM122.79 53.1303H123.24V59.3604H121.77L122.8 53.1303H122.79ZM117.65 63.1504V54.6404H117.27L119.34 50.3803H116.62L114.8 53.9604H114.08L114.51 55.8803H115.23V63.1604H117.65V63.1504ZM118.93 53.1303H120.27L118.95 60.6804H118.18L118.68 62.0804H121.32L121.49 60.9804H123.24V63.1404H126.08V60.9804H127.81L128 62.0804H130.64L131.14 60.6804H130.37L129.05 53.1303H130.37V51.5004H126.09V50.3904H123.25V51.5004H118.95V53.1303H118.93ZM100.4 61.6804L100.71 60.8204H100.26L99.56 59.2604H96.96L97.97 61.6703H100.4V61.6804ZM105.06 63.1504V58.6104H106.09V57.0504H105.06V56.0404H102.13V57.0504H96.39V58.6104H102.13V61.9304H100.76L101.41 63.1504H105.06ZM96.38 54.4004V55.8204H106.11V54.4004H102.75V52.9104H105.61V51.4903H102.75V50.4804H99.74V51.4903H96.88V52.9104H99.74V54.4004H96.38ZM91.7 52.9404L91.89 51.3103H89.49L89.16 54.5004H92.23V58.1003L89.16 58.9903V60.7703L92.23 59.8803V63.1703H94.92V59.1104L96 58.7803V57.0004L94.92 57.3304V54.5004H95.83V52.9404H94.92V50.4704H92.23V52.9404H91.7ZM72.64 59.5504C70.79 58.8504 69.49 57.8904 69.09 56.7204H76.16C75.77 57.8804 74.48 58.8404 72.63 59.5504H72.64ZM70.96 50.3503V51.1604H64.14V53.9203H67.45V52.6404H77.79V53.9203H81.2V51.1604H74.38V50.3503H70.95H70.96ZM81.13 60.9903C79.4 60.9403 77.72 60.7804 76.2 60.5104C78 59.4704 79.09 58.1804 79.35 56.7304H81.13V55.0903H79.4V54.1604H76.3V55.0903H68.97V54.1604H65.87V55.0903H64.21V56.7304H65.92C66.16 58.1904 67.27 59.4704 69.09 60.5104C67.58 60.7804 65.92 60.9403 64.23 60.9903V63.0804C67.47 63.0304 70.33 62.6304 72.66 61.9704C75.01 62.6404 77.88 63.0304 81.14 63.0804V60.9903H81.13ZM64.86 46.3604H130.39C136.11 46.3604 140.79 51.0404 140.79 56.7604C140.79 62.4804 136.11 67.1604 130.39 67.1604H64.86C59.14 67.1604 54.47 62.4803 54.47 56.7703C54.47 51.0503 59.15 46.3704 64.86 46.3704V46.3604Z" stroke="#231815" stroke-width="0.57" stroke-miterlimit="22.93"/>
</svg>
